<?xml version="1.0" encoding="UTF-8"?>
<svg id="Capa_1" data-name="Capa 1" xmlns="http://www.w3.org/2000/svg" viewBox="0 0 490.75 491.06">
  <defs>
    <style>
      .cls-1 {
        fill: #fff;
      }
    </style>
  </defs>
  <path d="M325.9,110.77c-5.78-5.83,12.68-24.9,8.22-34.04-28.1,20.22-65.18,24.56-91.2,47.91,19.11,4.12,37.97,9.29,57.24,12.84,20.47,3.77,42.42,4.95,62.25,8.77,14.78,2.84,36.64,10.21,35.96,28.21-10.13,4.49-10.73-6.6-18.47-11.15-4.26-2.5-11.02-4.11-15.93-5.18-25.17-5.48-53.44-5.55-78.8-12.37-1.08,50.79-41.89,82.76-76.8,113.14,15.05.69,28.45-7.35,42.22-10.62,5.67-1.35,7.81-.58,7.81,5.84l-.98,2.99-20.26,7.59c24.08,58,62.53,78.58,124.81,62.33,6.87-1.79,25.59-10.65,29.88-10.53,11.45.32,1.32,10.5-5.54,13.75-29.53,13.96-76.62,18.88-106.28,3.8-19.87-10.1-30.33-28.71-44.77-44.44,4.04,14.31-.96,26.98-.08,41.31,1.9,30.93,20.56,54.46,28.92,82.33,1.56,5.2,8.56,26.06-1.04,26-1.96.43-2.73-.68-3.79-1.99-1.2-1.48-9.05-29.91-11.62-36.34-3.72-9.35-9.68-22.94-14.31-31.73-.93-1.76-.96-4.58-3.84-4.77-4.12,21.15-12.39,54.37-25.21,71.68-4.33,5.85-9.62,2.79-10.97-3.24,27.87-49.72,36.23-107.87,30.41-164.34-67.87-1.96-84.42,78.14-82.64,131.46.15,4.62,5.35,20.27-1.03,21.91-4.54,1.16-6.86-3.79-7.61-7.42-3.86-18.64-3.46-39.49-.39-58.19,1.45-8.83,11.14-33.84,10.9-38.91s-18.19-31.89-18.1-41.16c-18.3,33.86-20.2,70.81-20.25,108.43,0,4.57,2.15,8.79,2.15,13.34,0,6.67-8.24,43.16-16.4,41.24-9.22-2.17,4.21-29.49,4.73-37.44,2.61-40.33-3.68-61.07,9.09-104.03,3.41-11.49,14.15-31.11,15.46-40.27,1.19-8.35-2.12-20.19-1.58-30.27,2.51-46.86,31.65-88.59,77.97-100.47,9.16-2.35,22.31-2.54,29.54-5.01,6.27-2.14,20.99-14.83,28.83-19.14,16.76-9.2,72.08-28.02,80.72-40.18,2.19-3.08,5.92-22.15,12.46-12.57,3.26,4.77-.8,25.73-2.27,32.34-1.32,5.94-10.21,37.9-19.42,28.6ZM229.46,134.28c-93.59-3.19-121.65,96.67-82.51,168.75,4.47.98,3.09-.63,4.32-2.49,5.05-7.6-.32-14.92-.58-23.33-1.66-54.6,10.57-98.82,57.07-131.08l21.7-11.85ZM275.57,143.87c-13.18-3.39-19.07-6.81-32.57-2.8-58.58,17.4-90.26,82.93-80.7,140.86,43-42,106.52-70.86,113.27-138.07Z"/>
  <path d="M402.12,141.77c-.21.28-4.49,1.63-5.65,1.14-7.78-3.22-25.16-58.36-21.07-62.36l8.67,1.88c-1.08,9.89,21.34,55.01,18.06,59.33Z"/>
  <path d="M315.67,301.3l-.65,7.61c-3.29,4.85-31.89-4.49-29.81-12.44,2.28-8.73,25.03,4.47,30.46,4.84Z"/>
  <path class="cls-1" d="M275.57,143.87c-6.75,67.21-70.27,96.07-113.27,138.07-9.56-57.94,22.12-123.46,80.7-140.86,13.5-4.01,19.39-.6,32.57,2.8Z"/>
  <path class="cls-1" d="M229.46,134.28l-21.7,11.85c-46.5,32.26-58.73,76.48-57.07,131.08.26,8.4,5.62,15.73.58,23.33-1.23,1.86.15,3.47-4.32,2.49-39.14-72.08-11.08-171.94,82.51-168.75Z"/>
</svg>