<?xml version="1.0" encoding="UTF-8"?>
<svg id="Capa_1" data-name="Capa 1" xmlns="http://www.w3.org/2000/svg" viewBox="0 0 489.7 496.83">
  <defs>
    <style>
      .cls-1 {
        fill: #fff;
      }
    </style>
  </defs>
  <path d="M349.76,274.53c-2.43,2.71,5.56,27.37-15.74,23.89-19.64-3.21-20.24-29.38-22.84-44.39l-25.04-58.38c-3.12,29.99,8.78,59.57,9.65,89.09.59,19.95-4.95,39.27-4.01,59.63.57,12.25,4.35,23.76,4.01,36.43-.37,14.12-7.48,34.87-5.94,47.93,1.52,12.93,16.92,13.15,15.21,26.39-1.73,6.13-12.65,6.95-17.9,7.19-39.15,1.76-23.84-18.87-26.03-45.12-.78-9.36-4.89-19.46-5.7-28.83-1-11.63,1.32-24.88-.2-36.25s-8.8-27.22-10.39-39.5c-.23,14.17-9.54,32.25-10.59,45.1-.64,7.84,2.18,13.9,2.11,21.07-.09,10.12-5.04,22.44-5.89,32.65-2.39,28.79,11.75,58.35-33.17,50.34-27.55-4.91,2.98-23.5,3.92-33.54.88-9.39-4.76-27.07-5.42-37.84-1.19-19.52,3.92-36.69,3.92-53.78,0-20.75-5.53-42.07-3.92-65.29,1.74-25.12,13.55-50.38,7.74-75.67l-8.65,26.8c-14.01,17.75-13.63,37.92-20.03,56.71-9.08,26.66-40.83,25.93-32.72-4.87-29.42-5.13,7.13-23.89,11.66-35.35,3.14-7.95,4.13-21.82,6.99-31.38,2.42-8.1,6.94-14.31,9.28-23.33,5.16-19.86.86-50.64,19.41-63.08,8.55-5.74,32.39-7.37,34.95-17.05,2.06-7.77-11.9-20.47-11.41-30.23.1-2.09,5.42-22.59,6.34-24.52,8.73-18.35,41.1-19.31,50.56-1.5,3.34,6.3,7.33,22.88,6.71,29.84-.75,8.38-12.97,20.25-11.39,26.47,2.68,10.56,38.39,8.38,47.57,31.25,3.82,16.36,3.96,36.99,8.33,53.05,1.54,5.66,5.97,10.93,7.76,17.18,2.91,10.1,4.43,25.58,8.1,34.11,3.37,7.84,29.01,22.04,20.34,31.85-2.26,2.56-6.93,2.19-7.59,2.92ZM234.95,95.25c15.04,15.04,24.61-7.46,31.77-17.83-5.58-7.04-2.24-14.51-4.49-21.89-4-13.09-28.13-13.93-33.85.92-1.15,2.99-3.56,18.55-3.16,20.97.17,1,8.58,16.68,9.73,17.83ZM256.98,109.66c-2.95-1.74-7.36,1.44-10.42,1.44-3.77,0-7.25-2.42-10.89-1.5-1.96.5-8.71,7.9-12.84,10.35-12.1,7.16-33.4,6.37-36.45,23.04-2.92,15.97-3.17,35.22-7.93,51.53-1.81,6.19-6.21,12.79-8.45,20.32-5.24,17.64-2.83,33.45-20.16,45.09-.9,4.13,3.93,1.56,4.05,5.64.19,6.45-4.02,14.78-2.14,22.13,18.04-2,13.8-26.46,18.28-40.21,3.87-11.88,13.23-23.48,17.63-36.09,5.32-15.25,7.73-33.44,11.86-49.16,1.06-1.79,5.06-1.63,6.68-1.2,2.34.62,8.56,32.29,8.96,37.42,2.18,28.3-8.4,54.63-9.75,82.46-1.01,20.82,4.55,41.05,4.01,61.55-.33,12.62-4.34,25.26-4,38.34.6,23.48,15.58,51.62-5.68,69.9,4.71-.71,19.41,2.38,20.97-3.1.39-1.38-2.17-22.7-1.86-28.61,1.81-33.97,9.02-70.6,14.88-104.05,2.73-15.57,3.52-31.54,6.22-47.11,6.22-3.12,9.46-2.73,11.07,4.01,3.49,14.62,4.02,33.27,6.87,48.85,1.93,10.55,7.73,24.08,8.87,33.33s-2.11,16.15-1.88,24.78c.27,10.04,5.02,22.17,5.85,32.62,1.02,12.73-.67,26.46.02,39.3l21.13-.03c-22.57-17.25-8.84-40.47-7.6-64.15.94-17.85-4.11-32.59-4.1-48.03.01-9.88,3.5-22.63,4-32.62,2.47-49.31-16.46-86.4-3.25-135.58,1.79-6.68,4.34-14.29,10.52-5.9,4.19,17.77,7.03,36.28,13.82,53.32,4.64,11.64,14.04,23.18,16.87,34.93s-1.23,36.04,17.72,35.02c1.66-10.29-8.75-21.15,1.9-27.8-18.8-9.99-15.36-25.57-20.54-42.74-2.45-8.12-7.2-16.13-9.25-23.37-4.95-17.5-4.96-36.55-9.13-54.23-5.92-15.55-27.62-12.72-39.65-21.7-3.4-2.54-5.77-7.94-6.22-8.2Z"/>
  <path class="cls-1" d="M256.98,109.66c.44.26,2.82,5.67,6.22,8.2,12.03,8.98,33.73,6.15,39.65,21.7,4.17,17.67,4.18,36.72,9.13,54.23,2.05,7.24,6.79,15.24,9.25,23.37,5.18,17.17,1.75,32.74,20.54,42.74-10.65,6.65-.24,17.5-1.9,27.8-18.94,1.02-14.8-22.96-17.72-35.02s-12.24-23.29-16.87-34.93c-6.79-17.03-9.63-35.55-13.82-53.32-6.18-8.4-8.73-.78-10.52,5.9-13.21,49.18,5.72,86.27,3.25,135.58-.5,9.99-3.99,22.74-4,32.62-.02,15.44,5.04,30.17,4.1,48.03-1.24,23.68-14.97,46.9,7.6,64.15l-21.13.03c-.69-12.84,1-26.57-.02-39.3-.84-10.46-5.59-22.59-5.85-32.62-.23-8.63,3-15.66,1.88-24.78s-6.94-22.78-8.87-33.33c-2.85-15.58-3.38-34.23-6.87-48.85-1.61-6.74-4.85-7.13-11.07-4.01-2.7,15.57-3.5,31.54-6.22,47.11-5.86,33.45-13.07,70.08-14.88,104.05-.32,5.91,2.25,27.23,1.86,28.61-1.56,5.48-16.27,2.39-20.97,3.1,21.26-18.29,6.28-46.43,5.68-69.9-.34-13.08,3.67-25.72,4-38.34.54-20.5-5.02-40.74-4.01-61.55,1.35-27.83,11.93-54.16,9.75-82.46-.39-5.13-6.61-36.8-8.96-37.42-1.62-.43-5.62-.59-6.68,1.2-4.13,15.72-6.53,33.9-11.86,49.16-4.4,12.61-13.77,24.21-17.63,36.09-4.48,13.76-.24,38.22-18.28,40.21-1.88-7.35,2.33-15.68,2.14-22.13-.12-4.08-4.95-1.52-4.05-5.64,17.32-11.63,14.91-27.45,20.16-45.09,2.24-7.54,6.64-14.13,8.45-20.32,4.77-16.3,5.01-35.56,7.93-51.53,3.05-16.67,24.35-15.87,36.45-23.04,4.13-2.45,10.88-9.85,12.84-10.35,3.64-.92,7.12,1.5,10.89,1.5,3.05,0,7.47-3.17,10.42-1.44Z"/>
  <path class="cls-1" d="M234.95,95.25c-1.15-1.15-9.56-16.83-9.73-17.83-.4-2.42,2-17.98,3.16-20.97,5.72-14.85,29.85-14.01,33.85-.92,2.26,7.38-1.09,14.85,4.49,21.89-7.16,10.37-16.73,32.87-31.77,17.83Z"/>
</svg>