<?xml version="1.0" encoding="UTF-8"?>
<svg id="Capa_1" data-name="Capa 1" xmlns="http://www.w3.org/2000/svg" viewBox="0 0 491.62 496.89">
  <path d="M428.19,194.74c-2.97-24.98-24.55-49.78-48.42-57.11-8.74-2.69-17.53-2.03-24.63-4.16-4.61-1.38-13.65-8.94-19.06-11.65-25-12.55-54.06-19.39-51.71-54.44l9.09.19c1.85,9.59,3.63,21.14,11.97,27.33,16.77,5.4,36.68,21.23,51.89,26.79,8.5,3.11,19.11,3.34,28.21,6.34,31.93,10.57,51.64,41.97,53.92,74.62.87,12.51-4.06,25.77-3.17,35.76.75,8.45,10.3,26.84,12.46,39.36,3.23,18.71,3.99,39.21.46,57.83l-6.4-.12-2.83-2.93c-1.13-26.02,2.78-58.12-10.22-81.85-8.26-15.08-27.3-21.03-41.87-28.16l-15.54,66.16c-.53,17.79,11.92,36.52,15.12,52.25.74,3.66,1.45,10-4.09,9.83-1.93-.71-3.96-1.17-5.23-2.98-5.44-7.79-7.64-31.16-12.32-38.98-1.99-3.32-3.15-.89-4.56,1.25-22.82,34.65-11.77,81.2-12.7,119.65l-5.78,1.86c-6.47-2.16-7.22-59.88-6.75-69.03-5.38,1.5-11.17,27.63-18.28,17.32-7.18-10.41,15.61-30.15,19.77-37.9,3.14-5.85,4.21-15.09,7.19-21.58,9.5-20.67,21.56-39.91,23.95-63.31-24.89,8.96-49.85,8.16-69.08-11.51-2.4,6.26-4.92,13.98-8.05,19.79-2.17,4.04-26.93,45.03-28.6,25.23-.21-2.47,20.82-33.31,24.11-41.22,3.14-7.54,10.78-42.62,12.67-43.91s8.38-.29,9.29,2.95-3.65,14.09-3.75,19.05c-.57,27.35,52.48,30.61,66.25,14.22,2.06-2.46,7.49-20.77,6.57-23.59-12.51-11.45-29.94-22.9-30.47-41.51,11-4.49,10.42,6.31,16.23,13.41,17.16,20.97,39.75,25.94,61.5,40.21.6.2,2.86-4.5,2.86-4.78,0-9.47,1.06-21.72,0-30.69Z"/>
  <path d="M44.23,284.88c1.56-15.41,11.94-32.75,13.33-46.24,1.09-10.51-2.84-25.6-1.88-38.22,2.36-30.99,21.7-60.48,51.2-71.6,16.97-6.4,24.44-5.68,42.91-14.67,11.82-5.75,37.57-15.18,43.87-25.22,3.4-5.41,6.15-24.71,12.57-23.55,10.44,8.39-1.66,29.85-10.5,37.12-4.12,3.38-52.75,29.6-57.37,30.91-11.2,3.2-22.09,2.41-34,8.23-31.18,15.24-43.22,53.11-37.03,85.65.46,2.41-1.42,3.47,2.78,2.89,16.52-12.65,39.02-17.41,53.86-32.51,5.64-5.74,12.46-23.55,20.91-21.06,6.27,1.84-1.76,13.84-3.82,17.03-6.38,9.86-16.12,18.13-25.96,24.36,4.2,9.72,3.34,21.32,13.13,27.05,14.17,8.29,37.13,9.89,50.43-.43,20.7-16.06,3.75-22.39,7.54-38.1l8.44-1.45c4.88,15.23,7.47,31.37,13.77,46.19,3.34,7.85,22.46,35.87,22.19,39.32-.19,2.37-1.27,3.54-3.14,4.78-5.52,1.4-17.71-18.95-20.37-23.61-4.45-7.8-9.65-17.51-11.21-26.22-6.37,1.46-9.25,7.14-15.29,10.61-19.24,11.03-35.72,5.66-55.72.91,3.13,22.49,14.82,41.26,23.96,61.39,3.34,7.37,4.59,17.56,8.28,24.33,3.43,6.31,11.64,12.31,15.46,19.08,2.21,3.93,9.2,17.7,2.97,19.68-10.77,3.42-9.05-13.11-16.09-17.09-.17,8.55-2.68,66.31-6.93,67.23l-6.65-.95c-3.95-2.74,1.72-28.33,2.02-34.66,1.52-32.38-.22-60.05-15.37-89.16-4.67-.61-3.04,0-4.01,2.66-2.77,7.6-9.35,41.53-18.04,41.53-2.2,0-4.01-1.19-4.63-3.24-1.02-3.36,16.56-47.63,16.48-59.54l-14.74-63.9c-12.18,1.28-34.41,12.62-41.1,23.2-5.94,9.39-11.41,35.66-12.41,47.06-1.2,13.73,1.44,27.77-.49,40.75-3.68,1.63-9.36-.06-9.36-4.55,0-14.37-1.4-32.22,0-46.03Z"/>
  <path d="M245.83,155.41l20.96-29.98c.5-2.87-7.07-8.28-9.16-11.56-3.18-5-11.97-26.34-6.14-30.45,7.62-5.37,11.37,16.05,14.45,22.15,4.12,8.16,10.65,12.11,14.49,20.12-13.89,15.83-24.81,29.86-26.93,51.8-7.27,75.22,6.95,162.5.07,237.89-.44,4.86-.7,9.11-4.94,12.37-3.43.79-7.24-5.3-6.77-8.52-4.83-76.77,6.8-162.12.06-237.88-2.21-24.88-13.13-37.44-28.12-55.65,4.04-8.36,11.58-13.27,15.74-21.99,2.65-5.55,4.38-17.35,5.68-19.26,3.12-4.62,10.04-.4,10.1,4.37.13,11.24-10.01,29.48-18.69,36.88,8.77,8.12,17.28,17.4,19.19,29.72Z"/>
  <path d="M225.82,322.44l5.63,1.7c7.83,11.52-24.73,54-36.99,57.21-5.63,1.48-10.13-1.16-7.23-7.3,1.27-2.69,18.3-15.24,22.89-21.26,7.69-10.11,9.19-20.24,15.7-30.36Z"/>
  <path d="M261.32,324.38l6.29-1.74c5.18.93,6.24,11.95,8.56,16.29,3.42,6.41,9.8,16.58,14.68,21.78,3.11,3.31,22.62,14.41,14.51,20.12-4.93,3.47-19.58-9.76-23.06-13.5-4.95-5.31-25.4-37.02-20.98-42.95Z"/>
  <path d="M141.47,146.01c9-2.68,57.9,21.87,54.34,35.11-2.85,10.62-18.54-9.45-22.31-11.95-7.26-4.81-35.27-11.73-35.28-18.54,0-2.22,1.19-4.01,3.25-4.62Z"/>
  <path d="M355.05,155.25c-11.26,4.39-27.18,8.88-36.93,15.83-3.75,2.67-15.15,20.77-18.41,9.99-4.23-13.96,40.36-35.36,50.87-35.21,2.32.03,3.66.92,4.43,3.1l.05,6.29Z"/>
</svg>