<?xml version="1.0" encoding="UTF-8"?>
<svg id="Capa_1" data-name="Capa 1" xmlns="http://www.w3.org/2000/svg" viewBox="0 0 489.7 491.07">
  <defs>
    <style>
      .cls-1 {
        fill: #fff;
      }
    </style>
  </defs>
  <path d="M101.82,433.45c-2.42-10.87,7.1-12.84,13.37-20.2,4.11-4.82,9.72-12.24,13.17-17.53s9.37-22.06,13.66-22.86,28.3,11.99,35.59,14.6c66.44,23.71,106.59,8.47,168.46-13.98,20.47-7.43,64.46-14.29,61.06-44.61-.53-4.73-3.25-7.67-3.78-11.58-2.87-21.25-3.16-40.69-9.18-61.79-11.16-39.06-37.32-73.05-52.72-110.36-7.53-18.25-9.44-41.59-25.9-52.77-10.99-7.46-59.26-22.54-73.1-24.79-9.37-1.52-12.03-1.01-17.45,6.58-2.88,4.03-16.77,29.88-16.65,33.42.1,3.07,1.85,11.73,6.78,8.5,5.93-5.24,8.3-36.64,18.16-33.61s-7.57,33.32-8.31,39.79,4.48,5.83,9.26,8.15c1.74-5.09,10.15-37.91,12.68-38.48,1.96-.44,4.76.09,6.66.96,6.74,4.57-11.6,34.43-7.78,43.27l8.67-1.88c2.25-5.49,6.89-31.32,11.71-32.4l6.62,2.95-7.48,30.79c-.3,6.48,13.42,5.91,16.12.52,2-4-7.63-12.71.06-15.17,8.19-2.62,7.42,6.41,13.24,7.57,7.81,1.56,14.39-1.87,19.24-7.7,10.62,2.66.53,12.03.92,18.05.42,6.43,18.02,34.67,11.37,39.33-1.72,1.2-6.71.13-8.55-1.72-2.21-2.23-8.76-26.67-12.83-33.21-2.28-3.66-2.83-3.78-7.26-3.27,8,23.49,11.74,48.85,9.56,73.8-2.82,32.25-17.57,51.03,5.84,82.45,2.76,3.71,16.45,12.66,9.62,17.37-5.84,4.03-12.87-4.55-16.41-8.68-6.85-7.98-10.77-18.6-17.42-26.71-24.17-29.51-65.63-36.21-96.62-12.46-5.63,4.31-15.28,18.67-20.29,18.19l-4.81-3.11,11.36-18.82c-20.19-19.84-46.82-30.43-75.45-27.83-6.29.57-29.9,9.11-31.91,2.61-.99-6.91,6.54-8.01,11.51-9.57,38.52-12.08,76.64.41,104.9,27.63,33.69-22.4,72.41-18.31,102.42,7.85-2.21-23.93,8.5-46.24,7.77-70.09-.48-15.45-5.08-32.26-9.69-46.9-13.03,12.29-29.74.06-45.25.59-10.68,20.68-43.79,7.01-42.45-12.81.22-3.19,3.22-6.26,2.75-9.5-1.4-9.75-9.27-10.12-2.83-26.69,4.75-12.22,19.2-40.07,33.28-41.7,7.43-.86,58.58,14.07,68.39,17.75,43.32,16.28,39.42,46.11,56.83,83.23,31.3,66.73,43.24,75.09,54.26,152.93,2.41,17.03,12.22,22.9-.48,42.04-14.76,22.25-40.18,23.97-62.15,31.89-25.71,9.26-49.28,20.47-76.98,24.75-43.66,6.74-87.83-2.02-126.48-22.59-8.3,12.02-14.79,25.55-24.9,36.31-5.78,6.15-10.79,13.44-20.18,11.48ZM232.37,140.03c-8.16.85-11.25-4.3-16.33-7.69-5.87-3.91-5.69,5.36-2.35,9.08s19.3,7.54,18.68-1.39Z"/>
  <path d="M169.02,322.22c12.27-.5,21.55,8.11,33.53,11.56,29.38,8.45,49.86,1.79,75.02-13.51,15.85,7.81-12.78,20.16-19.72,22.61-23.87,8.43-45.1,7.46-68.44-1.73-7.82-3.08-22.8-8.88-20.39-18.92Z"/>
  <path d="M138.29,297.27c1.06,28.76-19.24,61.7-42.35,77.56-6.33,4.34-24.05,16.1-23.9,2.96,21.66-14.56,38.86-27.3,49.33-52.36,4.19-10.04,4.56-30.53,16.92-28.16Z"/>
  <path class="cls-1" d="M232.37,140.03c.62,8.93-15.29,5.15-18.68,1.39s-3.53-12.99,2.35-9.08c5.08,3.38,8.17,8.54,16.33,7.69Z"/>
</svg>