<?xml version="1.0" encoding="UTF-8"?>
<svg id="Capa_1" data-name="Capa 1" xmlns="http://www.w3.org/2000/svg" viewBox="0 0 491.62 491.07">
  <path d="M251.57,252.21c2.91,13.25,28.07,23.17,40.22,25.03,51.63,7.92,78.57-21.69,77.08-71.82l9.58,1.06c7.52,17.81-6.72,36.65-9.31,51.93-4.8,28.33,7.56,60.56,14.74,87.49l-4.64,3.23c-10.02-.01-12.8-36.64-20.13-42.27-5.29,13.55-10.89,22.72-13.23,37.62-3.45,21.98,2.06,42.21-.13,61.24-.82,7.08-6.18,10.04-9.27,3.32-5.87-12.73-2.41-69.98,2.87-84.51,5.94-16.36,20.44-32.57,17.81-52.2-29.74,26.48-84.89,22.14-110.39-7.66h-2.83c-7.77,15.72-36.12,23.55-52.86,24.89-21.73,1.75-39.51-4.03-56.59-17.23-.98,27.77,20.19,46.65,22.77,74.09.91,9.68,1.7,55.27-1.19,61.61-1.91,4.18-5.55,6.43-9.16,2.44-.72-25.95,4.25-54.97-3.81-80.58-2.46-7.83-9.65-14.62-10.57-23.03-4.94-.54-3.05-.01-3.88,2.79-2.05,6.95-6.73,42.65-18.14,39.4-1.44-.41-2.82-2.84-2.87-4.65-.11-3.87,8.97-26.23,10.59-33.64,1.96-8.99,4.33-22.61,4.81-31.63,1.34-25.23-10.86-40.23-11.46-63.67-.24-9.35,6.91-16.31,10.4-8.32,2.8,6.43,2.14,24.11,5.84,34.46,13.47,37.68,54.4,44.03,88.62,31.09,40.94-15.47,14.86-51.8,26.7-82.94l8.46,2.99c2.52,16.87-3.4,43.97,0,59.45Z"/>
  <path d="M302.08,97.23c2.01,2.24,48.42,26.72,53.14,28.42,8.22,2.97,19.32,3.13,28.4,6.15,40.87,13.59,50.11,51.22,50.43,89.8.16,19.31,1.34,14.79,6.21,31.99,6.94,24.55,8.12,50.1,5.31,75.43-.97,8.78-8.34,9.27-9.68,1.81-2.18-12.07,1.01-30.73-.04-44.07-.36-4.57-5.97-34.18-7.67-35.51l-6.96,5.6c-11.78-2.9-1.7-17.61.29-26.68,10.68-48.74-18.42-91.43-69.24-93.89-12.91-12.08-55.74-22.94-62.1-37.69-1.92-4.44-4.94-21.52,2.67-19.94,4.77.99,5.54,14.43,9.26,18.58Z"/>
  <path d="M46.15,277.14c1.42-14.02,12.57-33.35,13.43-42.37.76-7.99-2.79-21.88-1.98-32.5,2.07-27.11,19.43-57.16,44.84-68.37,11.43-5.04,23.25-4.29,33.93-8.3,7.94-2.98,44.14-21.47,50.6-26.17,7.55-5.49,7.76-23.2,14.73-19.94,12.88,6.02-3.93,25.6-11.72,30.62-18.02,11.63-46.91,23.31-67.14,28.83-33.15,9.04-55.2,35.94-55.63,71.16-.12,9.76,10.14,38.64,9.36,41.7-2.88,11.34-12.54-1.17-13.13-.56-6.24,21.92-8.2,43.4-7.69,66.14.09,4.22,5.19,16.82-3.11,18.14-2.06.33-6.49-4.04-6.49-4.69,0-16.72-1.63-37.64,0-53.7Z"/>
  <path d="M228.86,170.33c-1.71-.99-3.79-7.96-12.43-11.51-14.1-5.8-42.51-5.24-53.66-11.12-7.32-3.86-2.91-10.17,7.13-9.62,11.64.63,51.07,8.71,59.59,15.37,11.66,9.12,9.43,22.69-.62,16.88Z"/>
  <path d="M320.26,138.61c8.4-.96,18.66,2.81,8.7,8.72-14.03,8.33-46.93,3.82-61.11,15.67-4.51,3.77-4.86,13.32-13.49,3.9,1.21-8.71,7.37-14.31,15.09-17.64,9.74-4.21,39.38-9.34,50.81-10.64Z"/>
  <path d="M176.69,262.74c-5.61,3.66-25.26-3.14-23.02-10.51,2.17-7.13,26.25,1.06,23.02,10.51Z"/>
  <path d="M329.82,249.7c20.37-2.67-3.28,22.5-14.89,10.16-.96-4.7,11.11-9.66,14.89-10.16Z"/>
</svg>