<?xml version="1.0" encoding="UTF-8"?>
<svg id="Capa_1" data-name="Capa 1" xmlns="http://www.w3.org/2000/svg" viewBox="0 0 489.71 491.13">
  <defs>
    <style>
      .cls-1 {
        fill: #fff;
      }
    </style>
  </defs>
  <path d="M202.34,135.56c11.04,11.15,28.3,13.57,38.16,21.75,20.66,17.12,27.12,30.05,54.54,43.87,19.92,10.04,54.03,15.56,61.19,38.6,9.69,31.15-5.56,112.36-16.86,144.32-3.79,10.72-11.71,9.83-10.9-1.14,1.72-23.41,17.92-53.07,17.16-77.94-5.05,7.64-18.08,22.54-20.2,30.62-3.15,11.97.14,30.13-.93,43.19-1.05,12.82-13.01,41.27-7.76,50.02,5.48,9.14,34.02,2.06,45.3,2.68,16.52.92,29.74,5.45,47.89,3.88,2.81-.24,29.78-4.61,18.79-9.12-7.7-3.16-18.5-2.99-27.93-6.62-6.51-2.51-19.01-9.47-25.01-13.37-23.22-15.13-22.6-23.69-18.05-49.88,6.44-37.06,20.99-75.19,26.14-112.6-9.25,1.65-18.7-20.87-11.38-24.16,10.15-4.56,6.39,12.52,14.43,16.28,10.4-12.51,7.33-23.92.59-37-15.86-30.79-42.86-65.81-69.79-87.55-6.74-5.44-44.71-30.16-46.05-32.64-8.03-14.9,17.35-1.05,18.28-1.96l5.95-24.74,8.6,1.67-6,30.72c21.24,14.43,43.33,31.85,59.64,51.78,12.38,15.12,30.94,42.51,40.17,59.6,13.36,24.75-1.82,43.25-7.95,66.61-6.24,23.77-25.27,92.36-25.34,112.83-.05,15.24,21.67,26.73,34.29,32.45,10.72,4.85,34.24,7.12,39.53,12.28,16.51,16.1-13.64,23.96-25.08,25.01-21.35,1.95-40.45-3.92-59.48-3.81-13.02.08-23.57,7.06-37.23.75-24.69-11.4-4.11-48.49-2.37-69.08.83-9.78,1.16-24.67.32-34.35-1.29-14.86-9.61-30.37-9.46-45.75.25-26.23,15.53-44.52,26.68-66.36-21.23-5.88-42.07-14.78-60.49-26.82l-37.39,77.66c-10.22,8.38-22.04,11.46-33.27,18.55-18.08,11.42-67.42,46.68-80.97,61.04-13.58,14.39-7.64,34.49-8.4,52.46,9.19,4.36,26.96,14.86,17.2,27.3-3.17,4.03-25.86,3.34-31.68,2.51-21.82-3.09-21.07-28.58-28.9-44.01s-36.2-36.64-10.5-54.45c12.31-8.53,21.77-6.17,35.41-20.25,25.38-26.19,24.36-57.4,59.73-74.58,9.08-4.41,19.39-5.87,28.67-9.71,1.49-20.12.55-40.43,2.79-60.51,1.06-9.5,7.48-28.88,6.82-36.54-.26-3.05-6.42-10.78-8.23-15.79-7.06-19.5-4.88-33.37,2.39-52.18,2.18-5.65,11.97-28.9,19.13-26.88l2.92,4.69c-14.49,25.28-29.22,62.31-5.09,86.68ZM121.01,425.88c-2.39-2.42-16.57-5.32-18.8-12.89-2.55-8.67-1.03-46.84,3.73-54.94,7.43-12.64,63.41-52.97,78.59-63.41,9.98-6.86,36.54-19.32,42.05-25.12,3.81-4.01,18.11-34.42,21.48-41.83,2.95-6.48,11.89-24.2,12.78-29.61.6-3.66.32-4.21-1.49-7.27-1.27-2.13-23.31-23.92-26.01-25.81-5.35-3.75-13.29-6.1-19.54-9.25-3.74-1.89-8.84-7.03-11.23-7.97-3.56-1.41-2.47,1.3-2.91,2.76-8.4,28.16-3.11,53.32-5.61,80.74-1.8,19.78-19.83,16.09-34.64,22.93-27.09,12.51-30.15,32.19-44.12,55.64,17.6-4.16,40.17-14.74,50.71-29.87,5.39-7.74,5.33-21.49,16.38-18.99,2.11,21.19-20.1,40.46-37.72,49.45-12.21,6.24-27.75,8.11-38.47,13.35-6.03,2.95-13.04,11.85-19.08,15.46-6.68,4-26.92,8.72-28.69,15.51-3.07,11.79,12.06,22.75,17.54,32.67,12.96,23.46,4.37,47.06,42.21,42.26,2.67-.34,5.58-1.04,2.84-3.81ZM343.69,235.98c-3.55-2.6-12.44,12.55-14.22,15.49-13.78,22.83-15.94,43.14-8.77,68.89,19.88-21.31,35.73-55.9,22.99-84.38Z"/>
  <path d="M263.09,115.17c17.49,37.15,36.68,60.95,74.94,77.59,8.68,3.78,27.41,4.82,19.22,15.56-4.73,3.51-38.49-12.98-44.83-16.83-35.12-21.31-44.14-47.33-63.08-80.82-2.68-4.74-10.97-9.34-.75-12.79,39.39,13.72,81.47,26.7,106.3,62.7,2.73,3.96,23.26,36.02,7.26,31.11-1.65-.5-14.06-23.89-17.63-28.43-19.29-24.52-51.35-41.79-81.43-48.09Z"/>
  <path class="cls-1" d="M343.69,235.98c12.74,28.48-3.11,63.07-22.99,84.38-7.17-25.76-5.01-46.06,8.77-68.89,1.78-2.94,10.67-18.09,14.22-15.49Z"/>
  <path class="cls-1" d="M121.01,425.88c2.74,2.77-.17,3.47-2.84,3.81-37.84,4.8-29.25-18.8-42.21-42.26-5.48-9.92-20.61-20.88-17.54-32.67,1.77-6.79,22.02-11.52,28.69-15.51,6.04-3.61,13.05-12.51,19.08-15.46,10.73-5.24,26.26-7.11,38.47-13.35,17.61-9,39.83-28.26,37.72-49.45-11.04-2.5-10.99,11.25-16.38,18.99-10.54,15.13-33.11,25.72-50.71,29.87,13.97-23.44,17.03-43.13,44.12-55.64,14.82-6.84,32.84-3.15,34.64-22.93,2.5-27.41-2.79-52.57,5.61-80.74.44-1.46-.65-4.17,2.91-2.76,2.39.94,7.49,6.08,11.23,7.97,6.25,3.15,14.19,5.51,19.54,9.25,2.7,1.89,24.75,23.68,26.01,25.81,1.81,3.05,2.09,3.61,1.49,7.27-.89,5.41-9.83,23.14-12.78,29.61-3.37,7.41-17.67,37.82-21.48,41.83-5.51,5.8-32.07,18.26-42.05,25.12-15.19,10.44-71.17,50.78-78.59,63.41-4.76,8.09-6.28,46.27-3.73,54.94,2.23,7.57,16.4,10.47,18.8,12.89Z"/>
</svg>