<?xml version="1.0" encoding="UTF-8"?>
<svg id="Capa_1" data-name="Capa 1" xmlns="http://www.w3.org/2000/svg" viewBox="0 0 487.79 496.88">
  <defs>
    <style>
      .cls-1 {
        fill: #fff;
      }
    </style>
  </defs>
  <path d="M340.48,108.04c-4.01,5.62-1.43,13.78-9.5,18.41-6.58,3.77-10.93-.55-17.97.22-3.14,2.99,19.67,39.97,21.04,47.05,2.13,2.34,3.43-.28,4.96-.93,2.32-.98,16.66-9.09,17.58-10.23,3.51-4.32,1.75-10.37,3.01-15.28,1.79-6.92,13.69-11.93,19.95-12.5,10.38-.95,20.85,15.54,19.99,25.45-1.09,12.51-13.39,14.2-20.31,20.14-12.76,10.96-38.15,45.93-56.55,39.22-9.74-3.55-11.76-16.1-21.17-18.12l-18.98,37.43c16.77,12.06,65.51,36.99,67.06,59.44,1.56,22.58-39.27,52.25-53.93,68.97-1.99,2.27-12.84,14.83-13.11,15.82-4.09,15.07,23.69,33.15,17.14,47.2-7.71,5.91-16.35,3.51-24.48-.3-6.11-2.86-40.5-33.55-42.1-38.66-3.52-11.22,13.99-19.89,20.15-26.13,16.7-16.92,19.52-41.12,36.67-57.35l-35.44-10.61c-4.5.44-22.77,27.79-27.96,33.58-25.58,28.56-61.99,43.54-91.1,68.18-3.28,4.4-9.53,27.28-6.92,31.18,1.25,1.87,4.75,1.98,5.62,4.51,6.4,18.51-26.36,23.82-34.84,2.25-1.91-4.87-10.55-40.14-10.86-44.98-.91-14.22,15.37-13.47,24.29-17.56,17.57-8.07,26.95-33.39,42.78-45.48,7.04-5.38,19.09-8.41,23.97-14.41,1.74-2.14,21.89-46.55,22.76-50.14,2.48-10.28.43-19.27,4.77-29.75,3.75-9.05,12.88-16.29,17.32-24.89,8.71-16.88,6.66-36.12,9.93-54.31l-17.86.36c-2.02.5-2.95,2.06-4.15,3.52-1.7,2.07-18.94,30.7-19.44,32.53-1.66,6.01,5.18,12.93,2.66,23.6-1.8,7.6-12.29,15.43-20.28,13.53-32.89-7.8-19.69-22.3-11.91-41.88,5.46-13.76,15.26-50.1,22.94-59.56,2.81-3.45,7.66-4.3,11.58-5.69,11.48-4.05,39.2-10.34,51.34-12,10.56-1.44,29.3,5.42,29.43-7.1.14-13.52-10.47-17.73-2.42-36.88,13.24-31.5,62.4-23.68,67.17,8.54.91,6.12-1.67,10.21-1.14,14.42.61,4.8,7.23,9.86,3.29,15.53-1.4,2.01-4.27,2.66-4.99,3.68ZM305.56,113.47c5.66-2.53,12.33,3.05,16.46,3.33,5.4.36,5.35-9.55,6.83-13.63.94-2.58,4.2-4.29,4.49-6.15.33-2.14-1.04-19.48-1.59-22.65-3.98-22.67-43.95-24.23-47.46,1.63-2.14,15.81,13.14,23.53-.1,40.09-10.37,12.97-14.3,2.7-25.72,3.06l-62.56,14.23c-9.79,17.45-13.86,37.24-21.07,55.66-4.74,12.12-19.63,22.6,1.27,29.45l9.95-7.74c1.46-2.6-4.6-9.18-5.19-12.66-2.12-12.43,22.34-38.79,25.91-52.41,5.6-3.57,31.42-1.49,40.07-1.67,6.21-.13,11.69-3.9,17.88.18l.02,7.15c-4.72,2.66-18.88,2.02-20.6,7.21-1.91,5.73-1.05,24.22-2.38,32.14-4.37,25.91-14.93,27.88-23.16,45.9-14.76,32.31,23.48,45.15,47.34,53.1,6.73,2.24,42.51,10.09,43.21,12.52-.79,9.09-11.4,12.82-16.97,19.39-7.08,8.36-9.86,19.55-15.32,28.81-9.48,16.07-18.45,26.24-32.92,38.03,15.29,11.67,26.26,29.24,45.09,35.44-5.73-9.78-20.82-33.09-17.48-44.13.73-2.42,12.68-15.95,15.51-19.15,11.16-12.58,25.56-23.75,36.53-36.39,18.76-21.61,21.13-26.42-1.99-46.01-7.04-5.96-18.07-12.98-26.04-18.1-5.54-3.56-26.48-13-26.86-17.47,10.62-32.44,43.45-61.96,38.37-97.59-1.63-11.44-10.23-17.96-1.52-31.57ZM316.86,166.94c2.61,7.76-8.82,18.31-7.45,23.57.69,2.64,15.84,18.88,19.74,18.65,10.57-.61,34.85-30.74,44.33-38.38,9.62-7.76,24.21-7.47,7.71-24.43-18.25,2.84-8.76,13.96-15.5,22.4-4.23,5.29-31.6,22.4-37.42,18.42l-11.41-20.23ZM213.86,275.48c-1.17-.9-.02-3.37-1.64-3.05-7.74,3.19-16.56,41.17-25.84,50.9-6.79,7.12-17.17,9.14-25.09,15.21-16.01,12.28-24.81,38.3-44.13,46.06-3.91,1.57-14.79,2.4-16.46,4.69-1.08,1.46-.87,3.03-.78,4.71.17,3.43,7.09,31.29,8.56,35.74,2.39,7.23,3.89,10.49,12.53,9.52-8.75-7.75-2.81-28.21,1.01-38.29,4.66-12.33,31.48-28.89,43.31-37.28,11.91-8.45,25.97-14.9,37.23-24.18,15.28-12.6,27.28-31.37,39.36-46.95-11.03-4.89-18.65-9.84-28.07-17.08Z"/>
  <path class="cls-1" d="M213.86,275.48c9.42,7.24,17.04,12.19,28.07,17.08-12.08,15.58-24.08,34.35-39.36,46.95-11.26,9.28-25.32,15.73-37.23,24.18-11.83,8.39-38.65,24.95-43.31,37.28-3.81,10.09-9.76,30.54-1.01,38.29-8.64.97-10.15-2.29-12.53-9.52-1.47-4.45-8.39-32.31-8.56-35.74-.08-1.67-.3-3.25.78-4.71,1.67-2.29,12.55-3.12,16.46-4.69,19.32-7.76,28.12-33.78,44.13-46.06,7.92-6.07,18.3-8.09,25.09-15.21,9.28-9.73,18.1-47.71,25.84-50.9,1.61-.32.47,2.15,1.64,3.05Z"/>
  <path class="cls-1" d="M316.86,166.94l11.41,20.23c5.82,3.98,33.19-13.13,37.42-18.42,6.74-8.43-2.75-19.56,15.5-22.4,16.51,16.96,1.91,16.67-7.71,24.43-9.47,7.64-33.76,37.77-44.33,38.38-3.9.23-19.05-16.01-19.74-18.65-1.37-5.27,10.05-15.82,7.45-23.57Z"/>
  <path class="cls-1" d="M305.56,113.47c-8.71,13.62-.12,20.13,1.52,31.57,5.08,35.64-27.75,65.16-38.37,97.59.38,4.47,21.32,13.92,26.86,17.47,7.96,5.12,19,12.14,26.04,18.1,23.12,19.59,20.75,24.41,1.99,46.01-10.97,12.64-25.37,23.81-36.53,36.39-2.83,3.19-14.77,16.72-15.51,19.15-3.34,11.04,11.75,34.35,17.48,44.13-18.83-6.2-29.8-23.77-45.09-35.44,14.47-11.79,23.44-21.96,32.92-38.03,5.46-9.26,8.24-20.45,15.32-28.81,5.56-6.56,16.18-10.3,16.97-19.39-.69-2.43-36.47-10.27-43.21-12.52-23.86-7.95-62.1-20.79-47.34-53.1,8.23-18.03,18.8-19.99,23.16-45.9,1.34-7.92.48-26.41,2.38-32.14,1.73-5.19,15.88-4.56,20.6-7.21l-.02-7.15c-6.2-4.09-11.68-.31-17.88-.18-8.65.18-34.47-1.89-40.07,1.67-3.57,13.62-28.04,39.99-25.91,52.41.59,3.48,6.65,10.05,5.19,12.66l-9.95,7.74c-20.9-6.85-6.01-17.34-1.27-29.45,7.21-18.42,11.29-38.22,21.07-55.66l62.56-14.23c11.42-.36,15.35,9.91,25.72-3.06,13.24-16.56-2.04-24.28.1-40.09,3.51-25.86,43.49-24.29,47.46-1.63.56,3.17,1.92,20.52,1.59,22.65-.29,1.86-3.55,3.57-4.49,6.15-1.48,4.08-1.43,13.99-6.83,13.63-4.14-.28-10.81-5.85-16.46-3.33Z"/>
</svg>