<?xml version="1.0" encoding="UTF-8"?>
<svg id="Capa_1" data-name="Capa 1" xmlns="http://www.w3.org/2000/svg" viewBox="0 0 489.71 496.89">
  <defs>
    <style>
      .cls-1 {
        fill: #fff;
      }
    </style>
  </defs>
  <path d="M378.25,370.23c-15.2,8.1-28.48,19.58-38.01,33.92-3.66,5.51-11.26,24.94-16.33,25.13-11.78.43.8-19.77,3.45-24.57,6.13-11.12,13.63-20.29,23.13-28.68,17.28-15.26,28.91-12.25,31.38-39.6,1.91-21.14-7.6-42.36-7.61-63.06,0-16.33,4.96-34.78,7.85-50.82-10.58-2.71-14.21,8.86-22.02,15.38-3.83,3.19-9.29,9.13-14.4,6.75-11.21-5.24,10.56-17.51,15.27-23.15,6.15-7.36,10.17-16.35,11.56-25.83-11.52-3.78-15.32,12.42-24.4,15-7.93,2.25-10.27-2.94-5.44-9.35,8.93-11.82,24.65-18.99,22.14-38.27-23.9,7.39-81.4,4.24-101.6-10.68-5.89-4.35-14.55-13.17-3.34-15.88,12.82,11.12,24.48,13.96,40.95,16.67,52.09,8.58,89.05.84,112.36-50.17,3.23-7.07,8.1-29.21,10.18-32.02,1.73-2.35,5-2.55,7.5-1.72,8.83,2.91-5.48,29.36-6.4,35.42-2.89,19.04-2.39,36.13-7.17,56.13-10.61,44.39-35.08,72.8-31.31,122.09,1.11,14.51,7.69,31.76,7.81,46.07.09,11.26-6.21,24.61-5.98,34.43.25,10.61,8.65,30.71,10.72,43.13.57,3.44,2.92,15.99,2.47,17.94-1.21,5.17-7.25,7.06-10.16,1.25-3.73-7.45-9.08-52.81-12.59-55.52ZM387.56,210.71c5.9-3.63,25.02-70.77,24.33-82.1-9.71,13.4-22.11,22.22-35.21,31.93l-4.15,23.65c5.14.55,15.08-9.17,16.57-9.43,5.11-.89,7.87,6.18,3.44,11.22-2.05,2.34-6.13,3.23-7.53,5.9-.77,1.47-3.92,13.51-4.64,16.49-1.03,4.29,5.56,3.33,7.18,2.33Z"/>
  <path d="M124.88,163.09c.13,15.02,8.09,24.83,18.16,34.62,3.83,3.73,9.03,3.07,6.54,10.18-3.89,11.09-20.24-10.39-24.16-11.8-2.48-.89-9-2.18-8.03,2.23,1.35,6.13,7.7,17.81,11.64,22.92,6.41,8.29,17.07,11.46,18.86,21.4-2.2,8.1-16.55-3.49-19.22-5.7-7.7-6.37-10.53-17.13-21.09-14.4,3.82,13.34,7.32,29.16,7.74,43.05.82,27.04-10.18,50.89-5.27,78.15.71,3.94,1.57,11.63,3.82,14.43,1.78,2.22,16.78,10.14,21.47,14.01,15.95,13.15,32.21,33.59,35.71,54.32-10.19,6.96-9.39-2.41-12.82-8.13-8.26-13.79-15.27-25.02-27.61-35.72-2.58-2.24-14.32-11.62-16.37-12.42-3.65-1.42-2.45,1.38-2.88,2.79-5.5,17.87-8.11,36.54-12.47,54.69l-5.43,1.7-4.64-4.77c.98-19.04,12.41-43.2,13.03-61.26.28-7.93-3.25-15.31-3.86-22.94-2.29-28.65,8.02-54.88,5.7-84.33-2.43-30.86-19.96-55.52-28.22-84.96-6.82-24.3-5.64-45.85-10.26-68.38-1.89-9.21-19.29-37.87.26-32.86,9.52,31.56,23.74,68.27,56.95,81.19,23.76,9.24,73.88,5.47,96.31-6.43,3.59-1.9,6.28-7.43,11.15-8.17,7.54-1.15,7.36,4.21,3.5,9.39-16.1,21.66-83.88,25.07-108.53,17.18ZM117.17,182.26l-4.79-23-21.21-15.25-12.37-15.42c1.27,28.93,12.67,55.82,23.29,82.18l7.44-.71c-3.06-4.61-2.49-16.46-4.33-19.66-1.41-2.46-11.64-3.87-9.03-12.75,5.74-8.03,12.91,6.67,21,4.61Z"/>
  <path d="M249.65,244.6c2.07,12.05,48.46,13.91,58.43,12.34,16.2-2.56,7.03-21.55,13.07-28.17,10.51-11.51,12.74,22.52.62,34.17-10.63,10.22-48.36,4.01-63.01,1.33-1.91-.35-9.1-5.56-9.1-.5v47.95c0,3.61-9.6,3.61-9.6,0v-48.91c-18.64,1.31-64.14,15.22-74.91-4.67-4.16-7.67-12.29-35.01,4.02-29.03,5.24,3.7-4.59,25.92,14.23,27.95,10.32,1.11,46.5-.66,53.38-7.58,1-1.01,3.29-5.89,3.29-6.81v-42.19c0-3.61,9.6-3.61,9.6,0,0,12.29-1.88,33.19,0,44.11Z"/>
  <path d="M267.12,318.62c3.44-5.2,42.8,4.16,47.36-18.84,1.23-6.2-2.1-24.08,5.47-25.33,11.63-1.93,7.71,35.19-5.14,44.84-6.99,5.25-42.75,13.14-47.05,6.96l-.64-7.63Z"/>
  <path d="M174.59,276.44c-4.13,40,14.17,37.81,46.21,43l1.95,1.89-1.86,5.78c-36.89,4.37-64.57-9.45-55.46-50.58l9.16-.09Z"/>
  <path d="M199.58,412.26l-6.3,1.72c-14.63-14.76-26.81-51.21-24.35-71.67.85-7.06,6.15-10.06,9.26-3.31s3.78,27.4,6.73,37.39c1.99,6.73,16.73,33.02,14.66,35.87Z"/>
  <path d="M320.67,335.69c1.36,22.28-4.71,53-17.59,71.6-4.72,6.82-13.53,9.74-12.8.68.23-2.84,11.49-22.03,13.67-28.57,1.58-4.77,3.69-11.57,4.73-16.38,1.24-5.74,1.13-25.63,5.51-27.1l6.49-.23Z"/>
  <path d="M167.69,207.76c5-5.61,28.4-16.22,36.31-18.36,4.63-1.25,24.51-6.67,26.44-.4,2.73,8.83-22.45,10.59-29.28,12.91-7.42,2.52-27.9,16.37-29.6,16.51-5.31.45-7.76-6.32-3.88-10.67Z"/>
  <path d="M262.44,186.41c7.51-2.39,26.87,3.86,34.59,7.02,6.83,2.8,30.03,13.78,27.34,22.2-2.89,9.02-19.86-6.83-24.84-9.35-5.81-2.94-14.66-5.85-21.02-7.77-4.87-1.47-19.27-.59-19.3-7.59-.41-2.23,1.26-3.88,3.23-4.51Z"/>
  <path d="M249.65,115.14c-2.96,2.17-9.6.11-9.6-2.88v-42.19c0-3.61,9.6-3.61,9.6,0v45.07Z"/>
  <path d="M370.6,122.81l-.27,9.34c-8.45,2.41-15.49,7.53-24.7,6.02l.27-9.34c8.45-2.41,15.49-7.53,24.7-6.02Z"/>
  <path d="M122.28,123.05c4.91-1.55,25.88,5.05,23.68,12.21-3.08,10-38.83-7.43-23.68-12.21Z"/>
  <path d="M257.32,349.12c-10.24-1.12-11.69-5.81-22.01,0l-2.71-8.35c7.92-9.37,28.5-6.85,24.72,8.34Z"/>
  <path class="cls-1" d="M387.56,210.71c-1.62.99-8.21,1.96-7.18-2.33.72-2.98,3.87-15.02,4.64-16.49,1.4-2.67,5.48-3.56,7.53-5.9,4.42-5.05,1.67-12.12-3.44-11.22-1.5.26-11.44,9.98-16.57,9.43l4.15-23.65c13.1-9.72,25.5-18.54,35.21-31.93.69,11.33-18.43,78.47-24.33,82.1Z"/>
  <path class="cls-1" d="M117.17,182.26c-8.09,2.06-15.26-12.64-21-4.61-2.61,8.88,7.61,10.29,9.03,12.75,1.84,3.2,1.27,15.05,4.33,19.66l-7.44.71c-10.62-26.37-22.02-53.25-23.29-82.18l12.37,15.42,21.21,15.25,4.79,23Z"/>
</svg>